<svg width="200" height="66" viewBox="0 0 200 66" fill="none" xmlns="http://www.w3.org/2000/svg">
<path d="M167.105 55.8457C167.102 55.8457 166.486 56.3945 166.486 56.3945C165.607 57.1807 164.702 58.0225 163.609 57.6015C163.308 57.4917 163.095 57.0897 163.044 56.7777C162.995 54.5272 164.008 52.4419 164.991 50.4116L165.243 49.8806C168.07 45.1604 171.356 39.5986 176.182 35.7387C176.995 35.1519 177.878 34.6589 178.809 35.0434C179.023 35.2442 179.273 35.5922 179.273 35.9394C179.273 36.0497 179.175 36.3422 179.118 36.4332C177.771 38.6113 176.487 40.8981 175.239 43.0933C172.799 47.4298 170.269 51.9117 167.105 55.8462L167.105 55.8457ZM140.956 44.7218C140.771 44.8505 137.511 43.7523 136.881 40.7336C136.347 38.1346 138.136 36.1039 139.868 35.0802C140.611 34.4944 141.731 34.2937 142.552 34.5852C143.314 35.0982 143.521 36.0137 143.521 37.0001C143.521 37.6051 143.44 38.2266 143.37 38.7936C143.37 38.7936 143.356 38.9039 143.354 38.9221C142.811 40.9523 141.979 42.9469 140.956 44.7219L140.956 44.7218ZM128.502 56.9987C128.17 56.5047 128.059 55.9645 128.048 55.3805C127.985 51.7931 131.844 45.3686 134.569 41.8686H134.575C135.717 44.3686 138.302 45.9756 139.863 46.6528C137.924 50.971 131.276 60.2187 128.503 56.9987H128.502ZM175.556 57.6357C174.911 58.0747 174.004 57.7372 174.343 56.7312C175.187 54.1697 178.544 48.9498 178.544 48.9498L187.893 32.3679H181.489C181.185 32.8679 180.533 34.0161 180.533 34.0161C180.237 33.5226 179.351 32.4251 178.987 32.1881C177.422 31.1993 175.127 31.6668 173.543 32.5631C166.658 36.5888 161.635 44.543 157.673 50.745C157.673 50.745 153.503 57.6399 151.188 58.1527C149.381 58.2992 149.567 55.8647 149.646 55.2975C150.344 51.1986 151.967 47.3018 153.602 43.7706C156.927 41.4654 160.722 38.4466 164.171 35.1352C171.655 27.9807 177.965 19.8753 178.887 18.0643C178.887 18.0643 177.889 18.2658 176.71 18.302C170.952 26.334 159.169 38.0079 155.597 39.7449C157.179 35.9387 167.404 17.771 176.105 9.08107L177.474 7.76328C179.591 5.69579 181.785 3.57351 183.494 3.22581C183.675 3.20761 183.907 3.22581 184.108 3.64731C184.184 5.2571 183.585 6.44649 182.897 7.80028L181.934 9.77657C181.934 9.77657 183.299 9.52032 184.195 9.22682C185.235 7.27003 186.387 5.07385 185.962 2.45806C185.82 1.61633 185.211 0.976074 184.415 0.829575C181.819 0.335578 178.991 2.25606 176.715 3.81175L176.623 3.86626C164.923 13.0327 155.043 26.2431 146.405 44.283C145.779 44.758 143.36 45.3258 142.949 45.051C143.802 43.295 144.876 40.9342 145.413 38.3728C145.506 37.6408 145.593 36.891 145.593 36.1594C145.593 34.5846 145.215 33.1032 143.804 32.0789C142.15 31.2554 140.106 31.6399 138.728 32.2616C132.553 34.8231 127.939 41.1541 124.609 46.3675C122.818 49.68 121.032 53.2277 120.538 57.2905C120.189 60.4734 120.898 62.5226 122.708 63.5476C124.569 64.4984 126.912 63.5101 127.832 63.0349C134.087 59.7417 138.458 53.1371 141.903 47.099C142.04 47.081 143.921 47.0265 145.344 46.66C145.363 46.66 145.371 46.66 145.402 46.6792C145.321 46.9524 144.586 49.1487 144.586 49.1487C142.402 55.5518 141.392 59.9066 143.455 62.4866C146.402 66.1278 151.281 62.3591 155.251 57.3816C154.399 63.3461 157.49 64.2796 159.846 63.8226C162.553 63.0911 165.569 60.1996 166.969 58.7181C166.519 60.4559 166.642 63.5666 169.104 63.8773C170.792 64.1893 172.055 63.2713 173.516 62.4843C178.758 59.6298 185.034 50.1184 186.663 47.3684H184.527C182.211 50.8686 179.264 55.4578 175.556 57.6363L175.556 57.6357ZM94.7953 22.1179H100.795L104.181 16.618H98.1803L94.7953 22.1179ZM190.636 7.50703C186.061 10.1055 181.319 11.7883 175.578 11.203C173.987 12.9965 172.438 14.8442 171.01 16.7468C179.067 18.796 187.609 14.2403 192.373 9.90462C197.412 5.53164 199.997 0.0249803 199.997 0.0249803C199.997 0.0249803 196.219 4.34245 190.635 7.50713L190.636 7.50703ZM140.186 6.11704C139.232 17.058 130.727 23.4809 128.623 23.9919C127.348 24.2477 125.172 23.6809 127.114 19.0892C129.975 12.9044 134.859 7.65423 140.099 4.96425C140.227 5.42174 140.223 5.71374 140.186 6.11674L140.186 6.11704ZM123.614 33.6889C123.005 32.3719 121.558 31.5301 120.017 31.6214C115.011 32.0791 110.115 36.1955 107.544 42.1053C106.195 45.1428 105.459 47.6491 104.976 51.6375C106.533 49.845 109.707 46.8995 113.31 45.2893C113.31 45.2893 113.801 41.4655 116.301 38.0623C117.247 36.6531 119.14 34.3846 121.266 34.9882C123.123 35.6107 122.47 40.7519 120.002 45.7271C118.175 49.3869 115.38 53.047 112.552 55.5712C110.052 57.6937 106.353 60.255 103.116 58.2792C101.078 57.0722 100.038 54.5467 100.258 51.2901C101.232 42.0509 105.438 34.1832 111.456 25.2182C117.662 16.8935 124.503 8.34933 133.719 3.79236C135.598 2.84111 137.339 2.62156 138.844 3.20711C138.844 3.20711 130.193 7.96408 126.069 16.765C125.02 18.9975 123.561 22.0155 125.03 24.687C125.798 26.0772 127.161 26.1872 128.258 26.114C133.313 24.9428 136.579 20.2225 139.247 15.905C140.794 12.63 142.169 9.37327 142.169 5.75009C142.169 5.3111 142.147 4.7259 142.109 4.2863C144.524 3.00611 149.476 5.2743 149.476 5.2743C153.346 6.55549 161.586 12.868 164.365 14.075C165.721 12.5019 167.949 10.1236 169.203 8.93408L167.387 7.81788C164.48 6.04309 161.407 4.3597 158.382 2.69491C151.512 -1.05526 145.92 0.261729 143.074 1.28642C141.955 1.68867 140.933 2.03642 140.933 2.03642C138.821 -0.268768 135.357 -0.0497707 132.805 0.572725C123.627 3.20721 115.105 9.62887 105.969 20.7716C99.2523 29.499 95.0853 37.0375 92.8653 44.4834C91.1535 49.4962 90.6333 56.8694 94.8113 61.2423C98.3635 64.9553 103.074 64.1511 106.4 62.8158C113.607 59.2664 120.084 51.6179 123.312 42.818C124.091 40.202 124.955 36.5062 123.614 33.6882L123.614 33.6889ZM43.7296 25.2001C43.7176 25.2366 42.5056 28.0173 42.5056 28.0173C42.3304 28.1636 42.0534 28.0906 41.7359 28.0173L41.1919 27.9253C39.4837 27.3951 38.1951 26.2605 37.7979 24.9068C37.2499 22.272 39.5007 20.2047 40.4924 19.4549C41.4439 18.7956 42.9232 18.4481 43.7822 19.1254C44.3119 19.7476 44.5127 20.5523 44.5127 21.4311C44.5129 22.6201 44.1459 23.9556 43.7297 25.2001H43.7296ZM41.1261 30.4871C41.1261 30.4871 41.0711 30.6523 41.0439 30.7063C41.0369 30.7063 38.2889 35.1883 38.2889 35.1883C36.6305 37.4025 34.5598 40.1843 31.9712 41.5193C31.204 41.7755 30.1434 41.9405 29.603 41.264C28.4572 39.8915 29.0478 37.9888 29.5275 36.452L29.6973 35.9031C31.0728 32.1711 33.2552 28.8771 35.3794 25.8211C35.4059 25.8031 35.4654 25.7849 35.4869 25.7849C35.4919 25.8032 35.5004 25.8032 35.5041 25.8399C36.8371 28.4009 39.3366 29.5897 41.2059 30.1394C41.2172 30.1394 41.2292 30.1576 41.2292 30.1944C41.2295 30.2489 41.1989 30.3226 41.1262 30.4866L41.1261 30.4871ZM75.5019 27.5416C76.7311 25.8404 80.3089 21.2844 81.1811 20.5162C84.1146 17.9354 85.2871 19.071 85.3886 19.8754C82.6508 24.7786 79.4196 30.3953 76.3816 35.4453C76.3876 35.4273 75.4309 36.8905 75.4309 36.8905C74.0891 38.9393 72.7381 40.6957 70.5344 41.9215C70.2202 42.0135 69.7022 42.0502 69.3574 41.7932C68.9424 41.5187 68.7786 41.0612 68.8254 40.5852C68.9574 39.0122 70.5592 34.2013 75.5019 27.5413L75.5019 27.5416ZM45.0371 16.4177C41.2446 13.9295 33.6222 18.6865 27.5172 26.8456C21.9343 34.1648 19.5235 42.6715 22.1471 46.6055C26.0498 51.2343 33.295 44.5015 36.376 40.8977L36.7735 40.4765C38.8687 38.226 40.4875 35.518 42.0542 32.9197C42.0542 32.9197 43.4942 30.5412 43.563 30.4312C44.453 30.2672 45.525 30.011 46.733 29.6632C46.7158 29.7177 42.1112 37.4572 42.581 41.2992C42.7273 42.4712 42.6155 46.7523 46.7955 48.0511C52.3665 48.9849 56.8155 44.6663 60.7394 40.8242C60.7394 40.8242 61.4082 40.1844 61.7864 39.8192C61.6907 40.2024 61.5659 40.7137 61.5659 40.7137C59.9349 46.3856 62.1334 47.5756 63.5087 48.0148C67.6649 49.223 72.6301 43.1849 72.6461 43.1849C72.5174 45.0868 72.1409 46.6603 74.1459 47.9228C76.0384 48.6003 77.9537 47.5676 79.4094 46.5978C84.6532 42.9021 88.8775 37.1179 92.2893 32.1179H90.1128C90.0871 32.1179 84.7421 39.8649 81.2714 41.5487C81.2664 41.5487 80.6344 41.8729 80.2704 41.6164C79.8199 41.2319 79.9977 40.4329 80.2754 39.8669C80.2929 39.8299 93.6763 16.618 93.6763 16.618H87.3574C87.3574 16.618 86.6671 17.7348 86.6108 17.808C86.5683 17.7715 86.4671 17.5795 86.3969 17.4875C82.4819 12.0721 73.6159 20.402 66.941 30.0614C64.3712 33.7759 61.0995 37.9582 57.707 40.9774C57.707 40.9774 52.6813 45.5843 50.5339 42.2744C49.7489 40.8836 49.9904 38.8504 50.4331 37.5152C52.9333 30.398 57.2416 23.9393 62.1441 20.0413C63.528 18.9625 65.0322 18.6505 65.7788 19.1081C66.4901 19.5296 66.6048 20.5716 66.1548 21.2852C65.013 21.2487 64.0983 21.5957 63.3546 22.3642C61.8897 23.9012 61.3807 25.3834 61.8465 26.7742C64.1093 29.9942 68.6219 23.627 68.4036 19.7483C68.3256 18.3575 67.5836 17.0405 66.4764 16.3995C64.8262 15.412 62.3087 15.6677 60.6795 16.455C58.4985 17.278 55.046 20.1502 53.0307 22.3827C50.4937 25.1825 46.1428 28.2925 44.782 27.9442C45.2277 26.7544 48.9029 19.2351 45.0367 16.4183L45.0371 16.4177ZM76.7989 57.1264C69.357 52.3325 59.257 51.4913 42.9691 56.0102C25.6052 60.0907 19.8153 62.7064 12.2123 57.4554C9.29135 54.8759 8.24405 50.7227 9.02614 44.7405C10.8399 34.9881 15.7413 25.6026 24.4481 15.1927C29.3078 9.77722 33.8155 5.12975 39.7679 3.26376C44.3299 2.09297 43.9034 5.67824 43.3514 6.19094C42.7689 6.19094 41.7904 6.28274 41.0342 6.77619C40.4205 7.25218 38.7358 8.78918 38.6453 10.8567C38.5148 14.0216 41.7902 13.3628 43.203 11.6252C44.7258 9.66697 46.9762 5.91689 45.206 2.42191C44.464 1.17792 43.182 0.318229 41.5902 0.0254304C36.1398 -0.286068 31.0633 2.31211 26.3783 5.1846C16.1354 12.3016 7.93946 22.1635 3.30249 32.9584C0.628705 39.4716 -1.78929 48.8013 1.83529 56.3953C4.63907 61.6642 10.46 64.463 17.4052 63.8777C22.276 63.366 28.1651 61.7917 32.1271 60.8412C36.0883 59.8893 56.3649 52.9191 63.0279 65.0502C63.0279 65.0502 65.2434 60.7494 70.78 60.6577C75.332 60.2378 81.899 61.9755 86.6809 65.4877C85.0878 63.0917 80.5708 59.5606 76.8025 57.1268L76.7989 57.1264Z" fill="white"/>
</svg>
